Coordinates
version=1
nRows=14
nColumns=63
inDegrees=yes

Units are S.I. units (second, meters, Newtons, ...)
If the header above contains a line with 'inDegrees', this indicates whether rotational values are in degrees (yes) or radians (no).

endheader
time	pelvis_tilt	pelvis_list	pelvis_rotation	pelvis_tx	pelvis_ty	pelvis_tz	hip_flexion_r	hip_adduction_r	hip_rotation_r	knee_angle_r	knee_angle_r_beta	ankle_angle_r	subtalar_angle_r	mtp_angle_r	hip_flexion_l	hip_adduction_l	hip_rotation_l	knee_angle_l	knee_angle_l_beta	ankle_angle_l	subtalar_angle_l	mtp_angle_l	L5_S1_Flex_Ext	L5_S1_Lat_Bending	L5_S1_axial_rotation	L4_L5_Flex_Ext	L4_L5_Lat_Bending	L4_L5_axial_rotation	L3_L4_Flex_Ext	L3_L4_Lat_Bending	L3_L4_axial_rotation	L2_L3_Flex_Ext	L2_L3_Lat_Bending	L2_L3_axial_rotation	L1_L2_Flex_Ext	L1_L2_Lat_Bending	L1_L2_axial_rotation	L1_T12_Flex_Ext	L1_T12_Lat_Bending	L1_T12_axial_rotation	Abs_r3	Abs_r2	Abs_r1	Abs_t1	Abs_t2	neck_flexion	neck_bending	neck_rotation	arm_flex_r	arm_add_r	arm_rot_r	elbow_flex_r	pro_sup_r	wrist_flex_r	wrist_dev_r	arm_flex_l	arm_add_l	arm_rot_l	elbow_flex_l	pro_sup_l	wrist_flex_l	wrist_dev_l
0.677966	0.115179	-4.285262	102.640780	0.013480	0.856224	0.706430	8.760368	-3.853259	-6.618271	20.692110	0.361145	38.139366	-1.926418	0.000000	2.737040	3.174552	11.814986	3.149112	0.054962	32.181448	-5.066534	0.000000	-0.003238	-0.354206	1.378375	-0.006013	-0.471093	1.464524	-0.005320	-0.861215	1.464524	-0.003701	-0.861215	1.206078	-0.003007	-0.722296	1.119930	-0.001850	-0.548664	1.033781	-0.023129	-4.006845	7.666110	0.000000	0.000000	20.974573	-10.310778	-2.998669	42.564313	-3.069454	7.130918	121.743429	89.444523	3.893791	6.627985	27.216140	-6.857662	17.610511	131.225497	88.607104	-12.799971	0.213594
0.694915	0.172397	-4.131677	102.816999	0.013114	0.856096	0.706464	8.632201	-3.809311	-6.807382	20.852121	0.363938	38.246181	-1.667864	0.000000	2.623066	3.130704	11.762226	3.088838	0.053910	32.330980	-4.913698	0.000000	-0.007217	-0.356479	1.448243	-0.013403	-0.474117	1.538758	-0.011857	-0.866742	1.538758	-0.008249	-0.866742	1.267212	-0.006702	-0.726931	1.176697	-0.004124	-0.552185	1.086182	-0.051552	-4.032557	8.054691	0.000000	0.000000	20.339633	-11.372923	-3.730374	45.755521	-2.534742	10.695747	114.043399	87.067988	2.531147	4.280449	27.257662	-6.417671	17.774685	129.388840	88.602024	-13.289835	-0.096984
0.711864	0.249128	-3.995474	102.911957	0.012744	0.855879	0.706447	8.530257	-3.735411	-6.900546	20.994723	0.366427	38.326573	-1.494546	0.000000	2.526336	3.078062	11.708803	3.032169	0.052921	32.485431	-4.882848	0.000000	-0.008972	-0.352759	1.575153	-0.016661	-0.469169	1.673600	-0.014740	-0.857697	1.673600	-0.010254	-0.857697	1.378259	-0.008331	-0.719346	1.279812	-0.005126	-0.546423	1.181365	-0.064084	-3.990477	8.760528	0.000000	0.000000	19.786394	-12.431480	-4.573371	48.965335	-2.441570	14.321116	105.578298	84.625578	1.630558	1.804707	27.256213	-5.862685	18.026257	127.480513	88.303111	-13.781315	-0.467155
0.728814	0.384777	-3.871567	103.003511	0.012242	0.855601	0.706413	8.436675	-3.614914	-7.045409	21.095005	0.368177	38.386931	-1.311251	0.000000	2.464894	2.986052	11.796970	3.013317	0.052592	32.627909	-5.078461	0.000000	-0.008736	-0.336403	1.733783	-0.016223	-0.447416	1.842145	-0.014352	-0.817931	1.842145	-0.009984	-0.817931	1.517061	-0.008112	-0.685993	1.408699	-0.004992	-0.521089	1.300338	-0.062398	-3.805460	9.642784	0.000000	0.000000	19.336843	-13.496745	-5.394533	52.175720	-2.773591	17.796717	96.728927	82.453874	1.540423	-0.706437	27.114624	-5.230399	18.309634	125.642159	88.260106	-14.187304	-0.935179
0.745763	0.561491	-3.758266	103.099643	0.011629	0.855273	0.706399	8.354707	-3.456809	-7.187664	21.156434	0.369249	38.426528	-1.190580	0.000000	2.440633	2.870848	11.984129	3.039971	0.053058	32.767196	-5.424347	0.000000	-0.008555	-0.309203	1.915134	-0.015888	-0.411241	2.034829	-0.014056	-0.751797	2.034829	-0.009778	-0.751797	1.675742	-0.007945	-0.630528	1.556046	-0.004889	-0.478956	1.436350	-0.061110	-3.497772	10.651398	0.000000	0.000000	18.986014	-14.548305	-6.159714	55.326338	-3.550479	21.094978	87.945635	80.623130	1.882447	-3.310381	26.843261	-4.565414	18.617946	123.956977	88.314039	-14.475211	-1.522515
0.762712	0.755150	-3.653150	103.204712	0.010924	0.854909	0.706436	8.286366	-3.284549	-7.324865	21.195495	0.369931	38.465588	-1.132814	0.000000	2.449050	2.754458	12.243474	3.115466	0.054375	32.897214	-5.880994	0.000000	-0.010101	-0.274717	2.114110	-0.018759	-0.365373	2.246242	-0.016596	-0.667946	2.246242	-0.011545	-0.667946	1.849847	-0.009380	-0.560202	1.717715	-0.005772	-0.425536	1.585583	-0.072154	-3.107651	11.758048	0.000000	0.000000	18.668721	-15.520644	-6.914715	58.303196	-4.739360	24.079112	79.711137	79.154938	2.370623	-5.897893	26.513143	-3.889807	18.959627	122.467506	88.395154	-14.706738	-2.072774
0.779661	0.985332	-3.545167	103.367908	0.010091	0.854573	0.706509	8.195762	-3.080310	-7.529814	21.172838	0.369536	38.494921	-1.099324	0.000000	2.488113	2.611099	12.608513	3.246488	0.056662	33.017514	-6.409308	0.000000	-0.012907	-0.230999	2.312643	-0.023970	-0.307229	2.457183	-0.021205	-0.561652	2.457183	-0.014752	-0.561652	2.023563	-0.011986	-0.471054	1.879023	-0.007375	-0.357818	1.734482	-0.092195	-2.613110	12.862228	0.000000	0.000000	18.307958	-16.408369	-7.659629	60.941347	-6.175534	26.544824	72.391562	78.060693	3.005731	-8.548299	26.129171	-3.205406	19.324104	121.116119	88.545574	-14.871474	-2.989344
0.796610	1.210101	-3.436554	103.566802	0.009223	0.854280	0.706556	8.080620	-2.875488	-7.749763	21.112427	0.368481	38.527884	-1.106621	0.000000	2.542110	2.475083	13.040601	3.425093	0.059779	33.127224	-6.983873	0.000000	-0.017589	-0.186528	2.504701	-0.032665	-0.248082	2.661244	-0.028897	-0.453523	2.661244	-0.020102	-0.453523	2.191613	-0.016333	-0.380367	2.035069	-0.010050	-0.288931	1.878525	-0.125636	-2.110037	13.930393	0.000000	0.000000	17.827510	-17.055698	-8.427932	63.053851	-7.730630	28.376932	66.410961	77.345972	3.632287	-10.989121	25.709510	-2.576479	19.722031	120.101935	88.720330	-14.964490	-3.774561
0.813559	1.416739	-3.335672	103.866096	0.008255	0.854071	0.706572	7.918457	-2.702641	-8.115610	20.987790	0.366306	38.573446	-1.058554	0.000000	2.616778	2.362200	13.563843	3.646773	0.063648	33.219219	-7.547408	0.000000	-0.023867	-0.143770	2.662860	-0.044322	-0.191214	2.829289	-0.039210	-0.349563	2.829289	-0.027277	-0.349563	2.330003	-0.022162	-0.293176	2.163574	-0.013637	-0.222700	1.997145	-0.170476	-1.626356	14.810031	0.000000	0.000000	17.229318	-17.523088	-9.184940	64.455812	-9.184837	29.477668	62.018029	77.016847	4.383121	-13.306794	25.214055	-2.095202	20.251435	119.498415	88.915323	-15.058230	-5.077873
0.830508	1.584984	-3.249159	104.221525	0.007296	0.853937	0.706482	7.724437	-2.570609	-8.547224	20.826567	0.363492	38.625695	-0.988484	0.000000	2.710564	2.281662	14.042454	3.913663	0.068306	33.327241	-7.965237	0.000000	-0.031411	-0.108042	2.768816	-0.058334	-0.143696	2.941867	-0.051606	-0.262694	2.941867	-0.035900	-0.262694	2.422714	-0.029169	-0.220320	2.249663	-0.017949	-0.167358	2.076612	-0.224369	-1.222196	15.399321	0.000000	0.000000	16.556600	-17.755171	-9.872168	65.007566	-10.393782	29.907049	59.480758	77.077443	5.327635	-15.163163	24.655046	-1.837070	20.801407	119.633260	89.147261	-14.809119	-6.257978
0.847458	1.686210	-3.179569	104.581231	0.006464	0.853878	0.706238	7.508770	-2.496987	-8.986269	20.647043	0.360359	38.685715	-0.922039	0.000000	2.806455	2.252823	14.437907	4.205770	0.073405	33.441880	-8.244621	0.000000	-0.040221	-0.086203	2.818622	-0.074694	-0.114650	2.994786	-0.066079	-0.209594	2.994786	-0.045969	-0.209594	2.466294	-0.037349	-0.175785	2.290131	-0.022982	-0.133529	2.113967	-0.287294	-0.975147	15.676331	0.000000	0.000000	15.857513	-17.747828	-10.570540	64.561930	-11.268776	29.668958	58.970038	77.530840	6.405655	-16.412704	24.130384	-1.858716	21.436541	120.585886	89.406463	-14.175150	-7.354256
0.864407	1.727215	-3.122971	104.945729	0.005709	0.853896	0.705863	7.272411	-2.481549	-9.449892	20.453810	0.356986	38.736099	-0.856407	0.000000	2.895765	2.267241	14.707041	4.509547	0.078706	33.578161	-8.310923	0.000000	-0.050100	-0.073985	2.779328	-0.093042	-0.098401	2.953036	-0.082310	-0.179888	2.953036	-0.057260	-0.179888	2.431912	-0.046523	-0.150871	2.258204	-0.028627	-0.114603	2.084496	-0.357862	-0.836938	15.457790	0.000000	0.000000	15.256133	-17.447656	-10.873215	63.132542	-11.712355	28.939606	60.405288	78.378111	7.603534	-17.059182	23.622088	-2.213198	22.009332	122.464199	89.590075	-13.198289	-8.265029
0.881356	1.711321	-3.086462	105.246034	0.005067	0.853979	0.705333	7.040363	-2.520318	-9.876520	20.256068	0.353535	38.772346	-0.776872	0.000000	2.965843	2.319659	14.810190	4.790476	0.083610	33.724151	-8.176318	0.000000	-0.059236	-0.069305	2.654200	-0.110008	-0.092175	2.820088	-0.097319	-0.168508	2.820088	-0.067701	-0.168508	2.322425	-0.055007	-0.141326	2.156538	-0.033848	-0.107353	1.990650	-0.423119	-0.783989	14.761865	0.000000	0.000000	14.822609	-16.913685	-10.704963	60.752270	-11.745065	27.812176	63.717580	79.618137	8.691686	-16.987754	23.190928	-2.879515	22.458781	125.302222	89.564588	-12.111168	-8.482034
0.898305	1.661509	-3.057729	105.436677	0.004519	0.854139	0.704664	6.814206	-2.588434	-10.240273	20.048990	0.349921	38.778480	-0.678264	0.000000	2.997254	2.385900	14.733274	5.027961	0.087754	33.874977	-7.874887	0.000000	-0.067859	-0.066145	2.457368	-0.126022	-0.087972	2.610953	-0.111486	-0.160824	2.610953	-0.077557	-0.160824	2.150197	-0.063014	-0.134882	1.996611	-0.038775	-0.102458	1.843026	-0.484714	-0.748242	13.667144	0.000000	0.000000	14.581120	-16.220656	-10.038594	57.529630	-11.459613	26.345696	68.707323	81.228144	9.486752	-16.232949	22.920913	-3.774709	22.711912	128.943923	89.287565	-11.150296	-7.673649
